<mxfile host="app.diagrams.net" modified="2024-05-15T13:51:43.165Z" agent="Mozilla/5.0 (Windows NT 10.0; Win64; x64) AppleWebKit/537.36 (KHTML, like Gecko) Chrome/123.0.0.0 Safari/537.36" version="24.4.0" etag="IsfMcaJdgK5AC7qwFszM" type="github">
  <diagram name="Page-1" id="3LJJoUVh1iB5vgGRhonY">
    <mxGraphModel>
      <root>
        <mxCell id="0" />
        <mxCell id="1" parent="0" />
      </root>
    </mxGraphModel>
  </diagram>
</mxfile>
